<svg viewBox="0 0 283.6 283.6" xmlns="http://www.w3.org/2000/svg"><g fill="none" stroke="#7b7b7b" stroke-miterlimit="10" stroke-width=".75"><path d="m180 55.45a3.78 3.78 0 0 0 -1.08-2.81 4.21 4.21 0 0 0 0 5.63 3.78 3.78 0 0 0 1.08-2.82z" transform="translate(-37.22 -20.45)"/><path d="m145.2 11.46-3.42 3.43m3.32-7.51-3.32 3.33m2.36-6.54-2.36 2.36m.02-6.03v18.49"/><path d="m182.57 30.2c0-4-1.43-7.4-3.55-9.25-2.12 1.85-3.55 5.3-3.55 9.25s1.43 7.4 3.55 9.25c2.12-1.85 3.55-5.3 3.55-9.25zm-78.41 55.87a3.78 3.78 0 0 0 -2.75-1.23 4.21 4.21 0 0 0 4 4 3.78 3.78 0 0 0 -1.25-2.77z" transform="translate(-37.22 -20.45)"/><path d="m52.05 47.23-.01 4.84m-2.95-7.65v4.7m-2.95-6.3-.01 3.35m-4.25-4.29 13.08 13.08"/><path d="m88.15 66.36c-2.79-2.79-6.24-4.22-9.05-4-.19 2.81 1.23 6.26 4 9.05s6.24 4.22 9.05 4c.22-2.81-1.2-6.25-4-9.05zm-15.93 94.95a3.78 3.78 0 0 0 -2.81 1.08 4.21 4.21 0 0 0 5.63 0 3.78 3.78 0 0 0 -2.82-1.08z" transform="translate(-37.22 -20.45)"/><path d="m11.46 138.39 3.43 3.43m-7.51-3.32 3.33 3.32m-6.54-2.36 2.36 2.36m-6.03-.02h18.49"/><path d="m47 158.7c-4 0-7.4 1.43-9.25 3.55 1.85 2.12 5.3 3.55 9.25 3.55s7.4-1.43 9.25-3.55c-1.89-2.12-5.33-3.55-9.25-3.55zm55.83 78.4a3.78 3.78 0 0 0 -1.23 2.75 4.21 4.21 0 0 0 4-4 3.78 3.78 0 0 0 -2.77 1.25z" transform="translate(-37.22 -20.45)"/><path d="m47.23 231.55 4.84.01m-7.65 2.95h4.7m-6.3 2.95 3.35.01m-4.29 4.25 13.08-13.08"/><path d="m83.13 253.11c-2.79 2.79-4.22 6.24-4 9.05 2.81.19 6.26-1.23 9.05-4s4.22-6.24 4-9.05c-2.81-.22-6.26 1.21-9.05 4zm94.94 15.89a3.78 3.78 0 0 0 1.08 2.81 4.21 4.21 0 0 0 0-5.63 3.78 3.78 0 0 0 -1.08 2.82z" transform="translate(-37.22 -20.45)"/><path d="m138.39 272.14 3.43-3.43m-3.32 7.51 3.32-3.33m-2.36 6.54 2.36-2.36m-.02 6.03v-18.5"/><path d="m175.46 294.3c0 4 1.43 7.4 3.55 9.25 2.12-1.85 3.55-5.3 3.55-9.25s-1.43-7.4-3.55-9.25c-2.12 1.85-3.55 5.3-3.55 9.25zm78.41-55.87a3.78 3.78 0 0 0 2.75 1.23 4.21 4.21 0 0 0 -4-4 3.78 3.78 0 0 0 1.25 2.77z" transform="translate(-37.22 -20.45)"/><path d="m231.55 236.37.01-4.84m2.95 7.65v-4.7m2.95 6.3.01-3.35m4.25 4.29-13.08-13.08"/><path d="m269.88 258.14c2.79 2.79 6.24 4.22 9.05 4 .19-2.81-1.23-6.26-4-9.05s-6.24-4.22-9.05-4c-.22 2.81 1.2 6.25 4 9.05zm15.93-94.95a3.78 3.78 0 0 0 2.81-1.08 4.21 4.21 0 0 0 -5.63 0 3.78 3.78 0 0 0 2.82 1.08z" transform="translate(-37.22 -20.45)"/><path d="m272.14 145.2-3.43-3.42m7.51 3.32-3.33-3.32m6.54 2.36-2.36-2.36m6.03.02h-18.5"/><path d="m311.07 165.8c4 0 7.4-1.43 9.25-3.55-1.85-2.12-5.3-3.55-9.25-3.55s-7.4 1.43-9.25 3.55c1.85 2.12 5.29 3.55 9.25 3.55zm-55.87-78.4a3.78 3.78 0 0 0 1.23-2.75 4.21 4.21 0 0 0 -4 4 3.78 3.78 0 0 0 2.77-1.25z" transform="translate(-37.22 -20.45)"/><path d="m236.37 52.05-4.84-.01m7.65-2.95h-4.7m6.3-2.95-3.35-.01m4.29-4.25-13.08 13.08"/><path d="m274.9 71.39c2.79-2.79 4.22-6.24 4-9.05-2.81-.19-6.26 1.23-9.05 4s-4.22 6.24-4 9.05c2.81.22 6.26-1.21 9.05-4zm-145.63-33.64a1.82 1.82 0 1 0 -3.37 1.4c.39.93 3.31 3.24 3.31 3.24s.45-3.71.06-4.64zm3.21 9.25a1.26 1.26 0 1 0 -2.32 1 12.2 12.2 0 0 0 2.28 2.23 12.2 12.2 0 0 0 .04-3.23zm-76.67 62.39a1.82 1.82 0 0 0 -1.4 3.37c.93.39 4.63-.06 4.63-.06s-2.3-2.93-3.23-3.31zm8.79 4.25a1.26 1.26 0 0 0 -1 2.32 12.2 12.2 0 0 0 3.19 0 12.2 12.2 0 0 0 -2.19-2.32zm-10.08 98.36a1.82 1.82 0 1 0 1.4 3.37c.93-.39 3.24-3.31 3.24-3.31s-3.71-.45-4.64-.06zm9.22-3.22a1.26 1.26 0 0 0 1 2.32 12.2 12.2 0 0 0 2.23-2.28 12.2 12.2 0 0 0 -3.23-.04zm62.41 76.68a1.82 1.82 0 1 0 3.37 1.4c.39-.93-.06-4.63-.06-4.63s-2.92 2.3-3.31 3.23zm4.26-8.8a1.26 1.26 0 1 0 2.32 1 12.2 12.2 0 0 0 0-3.19 12.2 12.2 0 0 0 -2.32 2.19zm98.35 10.09a1.82 1.82 0 1 0 3.37-1.4c-.39-.93-3.31-3.24-3.31-3.24s-.45 3.71-.06 4.64zm-3.21-9.23a1.26 1.26 0 1 0 2.32-1 12.2 12.2 0 0 0 -2.28-2.23 12.2 12.2 0 0 0 -.04 3.23zm76.67-62.41a1.82 1.82 0 0 0 1.4-3.37c-.93-.39-4.63.06-4.63.06s2.3 2.93 3.23 3.31zm-8.79-4.25a1.26 1.26 0 0 0 1-2.32 12.2 12.2 0 0 0 -3.19 0 12.2 12.2 0 0 0 2.19 2.32zm10.08-98.35a1.82 1.82 0 1 0 -1.4-3.37c-.93.39-3.24 3.31-3.24 3.31s3.71.44 4.64.06zm-9.22 3.21a1.26 1.26 0 1 0 -1-2.32 12.2 12.2 0 0 0 -2.23 2.28 12.2 12.2 0 0 0 3.23.04zm-62.41-76.72a1.82 1.82 0 0 0 -3.37-1.4c-.39.93.06 4.63.06 4.63s2.92-2.23 3.31-3.23zm-4.26 8.84a1.26 1.26 0 0 0 -2.32-1 12.2 12.2 0 0 0 0 3.19 12.2 12.2 0 0 0 2.32-2.19z" transform="translate(-37.22 -20.45)"/></g></svg>