<svg xmlns="http://www.w3.org/2000/svg" viewBox="0 0 34.29 38"><defs><style>.cls-1{fill:#818785;opacity:0.5;}.cls-2{fill:#e87952;}.cls-3{fill:#fff;}</style></defs><g id="Layer_2" data-name="Layer 2"><g id="Layer_1-2" data-name="Layer 1"><path class="cls-1" d="M30.35,32.34l0,0L16.17,37.72a4.21,4.21,0,0,1-1.42.28c-.45,0-.59-.73-.6-.93L12.8,32.35c0-1.92,4.71-4.09,10-5,4.79-.84,9.43-.56,10.94.72,1.31,1.1.15,2.8-3.42,4.29Z"/><path class="cls-2" d="M27.27,23.5l-.05.05L16.12,37.42a1.55,1.55,0,0,1-2.46-.06L2.7,23.54a15,15,0,1,1,24.57,0Z"/><path class="cls-3" d="M15,10.62a4.66,4.66,0,1,0,4.65,4.65A4.66,4.66,0,0,0,15,10.62Z"/></g></g></svg>