<svg version="1" xmlns="http://www.w3.org/2000/svg" width="346.667" height="346.667" viewBox="0 0 260.000000 260.000000"><path d="M117 1.6c-1.4.2-5.6.9-9.5 1.5-16.4 2.6-37.6 11.5-52.2 21.8C46 31.5 31.5 46 24.9 55.3 15 69.3 7.2 87.4 3.4 105.2c-2.5 11.6-2.5 38 0 49.6C9 181 20.7 202.6 39 221c18.4 18.3 40 30 66.2 35.6 11.6 2.5 38 2.5 49.6 0C181 251 202.6 239.3 221 221c18.3-18.4 30-40 35.6-66.2 2.5-11.6 2.5-38 0-49.6C251 79 239.3 57.4 221 39c-18.3-18.3-40.2-30.1-66-35.6-7.1-1.5-32.7-2.7-38-1.8zm29 30.3c20.1 7.6 31.6 29.4 26.5 50.1l-1.8 7.2 3.9 3.1c19.2 15.4 29.6 40.3 26.7 63.7-2.3 17.8-8.3 30-21.3 43s-27.4 19.6-45.5 20.7c-22.1 1.4-45-8.6-59.1-25.8-13.2-16.2-19-38.7-15-58.9 2.9-15.1 16.3-38 22.1-38 5.1 0 4.8 5.7-.5 10.5-2 1.9-10 14.4-10 15.7 0 .4 5.4.8 12.1 1 10.4.3 12.3.6 13.4 2.2 1 1.3 1.1 2.4.4 3.7-.9 1.7-2.3 1.9-14.9 1.9H69.2l-1.1 5c-2.4 11-.6 25.7 4.5 37l2.7 6h26.4c22.5 0 27 .2 29.9 1.6 5.9 2.8 8.1 10.2 4.9 16.4-2.6 5.1-5.8 6-21.7 6l-14.3.1 3.8 2c5.8 3 18.2 5.9 25.6 5.9 16.6-.1 32.8-6.7 44.6-18.4 4-3.9 8-8.6 8.9-10.4l1.7-3.2h-7.6c-7.2 0-7.7-.2-11.3-3.4-3.2-3-3.7-4-3.7-8V164h-8.2c-7.1 0-8.6-.3-10.4-2.1-1.8-1.8-1.9-2.3-.7-4.1 1.3-2 2.2-2.1 16.3-1.9 8.2.1 15.7.7 16.8 1.2 2.8 1.6 1.8 5.2-2 6.8-3.7 1.6-5.1 4.5-3.3 6.6.9 1.1 3.5 1.5 9.6 1.5 9.8 0 9.9 0 12-11.9 2.4-13.4 4.7-12-19.7-12.3-19.2-.3-21.3-.5-22.3-2.1-.9-1.5-.7-2.2 1.3-3.8 2.1-1.7 4-1.9 21.8-1.9h19.5l-.7-3.8c-.3-2-1.1-5.4-1.7-7.5l-1.1-3.7h-10.6c-13.5 0-17.5-.7-20.5-3.5-2.8-2.6-2.8-2.7-7.1 5-1.6 2.7-6.4 10.5-10.8 17.2-10.2 15.9-10.4 15.9-19.1 2.5-10.8-16.7-15.8-25.3-22.8-39C87.2 84.4 84.9 73.1 89 59.8c4.4-14.2 15.7-25.2 30-29.3 7.3-2 19.7-1.4 27 1.4zm-33.6 109.4c1.1.8 1.7 2.3 1.4 3.8-.3 2.3-.6 2.4-10.5 2.9-5.6.3-10.7 1-11.3 1.6-.7.7-1 2.2-.8 3.5.3 2.4.5 2.4 14.5 2.9 8.6.3 14.7.9 15.3 1.6.7.7 1 2.2.8 3.5-.3 2.4-.4 2.4-14.9 2.7-8.1.1-15.8-.2-17.3-.7-3.4-1.4-6.6-6.7-6.6-11.3 0-4.5 3.8-9.4 8.3-10.7 5-1.4 19-1.3 21.1.2z"/><path d="M119.9 38.5c-10.3 3.3-18.9 11.6-22.8 22-4.3 11.5-1.9 22.4 9.5 44.5 6.3 12.1 18.6 33 22.3 37.9l1.8 2.4 8.8-14.4c11.1-18 21.4-38.1 24.4-47.8 5.4-17.3-2-34.6-18.1-42.5-7.1-3.5-18.8-4.4-25.9-2.1zm22.6 9.3c4.7 2.4 10.6 8.3 13 13.1 2.3 4.6 3.1 14 1.5 19.4-.6 2.4-2.8 6.6-4.9 9.3-15.7 20.8-49 9.6-49.1-16.6 0-12.6 7.7-23.1 20-27.1 4.3-1.4 15.2-.4 19.5 1.9z"/><path d="M122 55.2c-6.5 3.4-10.2 8.6-10.8 15.2-.8 9.3 2.7 16 10.1 19.8 13 6.6 28.7-2.8 28.7-17.1-.1-14.9-15-24.5-28-17.9zM166.6 97.7c-1.6 1.6-.4 3.3 2.5 3.3 1.7 0 2.8-.4 2.4-1-.9-1.5-4.1-3-4.9-2.3zM163.2 110.2c-4.1 4.1 1 6.8 12.5 6.8 5.1 0 9.3-.2 9.3-.5s-1-2.1-2.2-4l-2.3-3.5h-8c-5 0-8.6.5-9.3 1.2zM84.5 192l3.9 4h19.2c10.6 0 19.9-.3 20.8-.6 1.9-.7 2.1-4.5.4-6.2-.9-.9-7.8-1.2-24.7-1.2H80.6l3.9 4z"/></svg>