<?xml version="1.0" encoding="UTF-8"?>
<svg width="19px" height="23px" viewBox="0 0 19 23" version="1.1" xmlns="http://www.w3.org/2000/svg" xmlns:xlink="http://www.w3.org/1999/xlink">
    <!-- Generator: Sketch 63.1 (92452) - https://sketch.com -->
    <title>Group 7</title>
    <desc>Created with Sketch.</desc>
    <g id="Classes-near-me" stroke="none" stroke-width="1" fill="none" fill-rule="evenodd">
        <g id="classes-near-me---confirmation-email" transform="translate(-51.000000, -478.000000)" stroke="#92BBB8" stroke-width="1.5">
            <g id="Group-3" transform="translate(51.000000, 478.000000)">
                <g id="Group-7">
                    <path d="M9.5016,17.5764 C9.5016,17.5764 3.6886,10.6924 3.6886,6.5624 C3.6886,3.3524 6.2906,0.7494 9.5016,0.7494 C12.7116,0.7494 15.3136,3.3464 15.3136,6.5624 C15.3136,10.6924 9.5016,17.5764 9.5016,17.5764 Z" id="Stroke-1"></path>
                    <path d="M15.3161,14.8401 C17.1181,15.5521 18.2531,16.5901 18.2531,17.7441 C18.2531,19.8911 14.3351,21.6311 9.5021,21.6311 C4.6681,21.6311 0.7501,19.8911 0.7501,17.7441 C0.7501,16.6721 1.7291,15.7001 3.3131,14.9971" id="Stroke-3"></path>
                    <path d="M10.1188,6.4885 C10.1188,6.8295 9.8428,7.1055 9.5018,7.1055 C9.1598,7.1055 8.8838,6.8295 8.8838,6.4885 C8.8838,6.1465 9.1598,5.8705 9.5018,5.8705 C9.8428,5.8705 10.1188,6.1465 10.1188,6.4885 Z" id="Stroke-5"></path>
                </g>
            </g>
        </g>
    </g>
</svg>