<svg viewBox="0 0 28.94 31.84" xmlns="http://www.w3.org/2000/svg"><path d="m-4697.73 835.8h-.43v.43a5.23 5.23 0 0 0 1.7 3.87 5.37 5.37 0 0 0 3.64 1.71h.67v-.43a5.23 5.23 0 0 0 -1.7-3.87 5.23 5.23 0 0 0 -3.88-1.71zm1.94 3.63a4.65 4.65 0 0 1 -1.4-2.62 4.66 4.66 0 0 1 2.62 1.4 4.65 4.65 0 0 1 1.4 2.62 4.66 4.66 0 0 1 -2.62-1.4zm26.5-4.64h-.43a5.24 5.24 0 0 0 -3.88 1.7 5.23 5.23 0 0 0 -1.7 3.88v.43h.67a5.37 5.37 0 0 0 3.64-1.71 5.23 5.23 0 0 0 1.7-3.87zm-2.37 3.6a4.67 4.67 0 0 1 -2.62 1.4 4.66 4.66 0 0 1 1.39-2.62 4.67 4.67 0 0 1 2.62-1.39 4.66 4.66 0 0 1 -1.4 2.61zm-12.83-28.39-.33.29c-2.87 2.5-4.65 7.11-4.66 12.05s1.78 9.55 4.66 12.05l.33.29.33-.29c2.87-2.5 4.66-7.12 4.66-12.05s-1.78-9.55-4.66-12.05zm-.5 22.81a16.05 16.05 0 0 1 -3.48-10.48 16.06 16.06 0 0 1 3.48-10.48zm1-21a12.27 12.27 0 0 1 2 3.18l-2 2zm0 6.6 2.41-2.41a17.54 17.54 0 0 1 .8 3.06l-3.21 3.21zm0 5.27 3.38-3.38a19.47 19.47 0 0 1 .1 2c0 .63 0 1.25-.09 1.86l-3.4 3.39zm0 5.27 3.17-3.17a14.5 14.5 0 0 1 -3.17 7z" fill="#7b7b7b" transform="translate(4698.2 -810)"/></svg>