<svg height="20" viewBox="0 0 20 20" width="20" xmlns="http://www.w3.org/2000/svg"><path d="m10 20c-5.523 0-10-4.477-10-10s4.477-10 10-10c5.523 0 10 4.477 10 10s-4.477 10-10 10zm7.75-8c.161-.6.254-1.289.254-2s-.093-1.4-.266-2.056l.013.056h-3.82c.044.598.07 1.296.07 2s-.025 1.402-.075 2.093l.005-.093h3.82zm-.82 2h-3.22c-.186 1.31-.518 2.493-.985 3.605l.035-.095c1.782-.67 3.226-1.9 4.15-3.472zm-8.85-2h3.84c.052-.599.081-1.296.081-2s-.03-1.401-.088-2.09l.006.09h-3.84c-.052.599-.081 1.296-.081 2s.03 1.401.088 2.09zm.25 2c.41 2.4 1.13 4 1.67 4s1.26-1.6 1.67-4zm-6.08-2h3.82c-.044-.598-.07-1.296-.07-2s.025-1.402.075-2.093l-.005.093h-3.82c-.161.6-.254 1.289-.254 2s.093 1.4.266 2.056l-.013-.056zm.82 2c.944 1.61 2.388 2.84 4.115 3.492l.055.018c-.42-.96-.74-2.16-.95-3.51zm13.86-8c-.944-1.61-2.388-2.84-4.115-3.492l-.055-.018c.42.96.74 2.16.95 3.51zm-8.6 0h3.34c-.41-2.4-1.13-4-1.67-4s-1.26 1.6-1.67 4zm-5.26 0h3.22c.2-1.35.53-2.55.95-3.51-1.782.67-3.226 1.9-4.15 3.472z"/></svg>