<svg height="20" viewBox="0 0 20 20" width="20" xmlns="http://www.w3.org/2000/svg"><path d="m7 8c-2.209 0-4-1.791-4-4s1.791-4 4-4c2.209 0 4 1.791 4 4s-1.791 4-4 4zm0 1c2.15 0 4.2.4 6.1 1.09l-1.1 5.91h-1.25l-.75 4h-6l-.75-4h-1.25l-1.1-5.91c1.813-.684 3.909-1.083 6.097-1.09zm8.31.17c1.32.18 2.59.48 3.8.92l-1.11 5.91h-1.25l-.75 4h-3.96l.37-2h1.25zm-2.31-9.17h.034c2.209 0 4 1.791 4 4s-1.791 4-4 4c-.49 0-.958-.088-1.392-.249l.028.009c.832-1.017 1.336-2.329 1.336-3.76s-.504-2.743-1.344-3.771l.008.011c.43-.14.86-.24 1.33-.24z"/></svg>